<svg width="1200" height="960" viewBox="0 0 1200 960" fill="none" xmlns="http://www.w3.org/2000/svg">
  <rect width="1200" height="960" fill="#0C1012"/>
  <rect width="1200" height="960" fill="url(#paint0_radial)"/>
  <rect y="690" width="1200" height="270" fill="#11181B"/>
  <path d="M140 220H1060V640H140V220Z" fill="#141B1E"/>
  <path d="M200 290H1000V598H200V290Z" fill="#0B0E10"/>
  <path d="M257 331H943V560H257V331Z" fill="#DAE0D8" fill-opacity="0.06"/>
  <path d="M355 740V372H845V740H355Z" fill="#233136"/>
  <path d="M423 340V262H777V340H423Z" fill="#314046"/>
  <path d="M450 372H750V510H450V372Z" fill="#1B2428"/>
  <path d="M415 627C415 595.52 440.52 570 472 570H742C782.869 570 822.065 586.237 850.962 615.133L886 650.171V726H415V627Z" fill="#C9D2D0" fill-opacity="0.08"/>
  <circle cx="500" cy="726" r="58" fill="#090C0E"/>
  <circle cx="500" cy="726" r="31" fill="#2A3235"/>
  <circle cx="766" cy="726" r="58" fill="#090C0E"/>
  <circle cx="766" cy="726" r="31" fill="#2A3235"/>
  <path d="M160 792H1040" stroke="#293136" stroke-width="3"/>
  <defs>
    <radialGradient id="paint0_radial" cx="0" cy="0" r="1" gradientUnits="userSpaceOnUse" gradientTransform="translate(862 120) rotate(135.533) scale(621.922 566.792)">
      <stop stop-color="#1F6FEB" stop-opacity="0.35"/>
      <stop offset="1" stop-color="#0C1012" stop-opacity="0"/>
    </radialGradient>
  </defs>
</svg>
